<mxfile host="app.diagrams.net" modified="2023-05-17T17:11:54.400Z" agent="Mozilla/5.0 (Windows NT 10.0; Win64; x64; rv:109.0) Gecko/20100101 Firefox/113.0" version="21.3.2" etag="8rieSwUufuRsz1rE1yNX" type="github">
  <diagram name="Страница 1" id="ZX98CsLE-YpMdWqAGsV6">
    <mxGraphModel>
      <root>
        <mxCell id="0" />
        <mxCell id="1" parent="0" />
      </root>
    </mxGraphModel>
  </diagram>
</mxfile>
